<?xml version="1.0" encoding="utf-8"?>
<!-- Generator: Adobe Illustrator 25.1.0, SVG Export Plug-In . SVG Version: 6.00 Build 0)  -->
<svg version="1.1" id="Capa_1" xmlns="http://www.w3.org/2000/svg" xmlns:xlink="http://www.w3.org/1999/xlink" x="0px" y="0px"
	 viewBox="0 0 587.7 615.6" style="enable-background:new 0 0 587.7 615.6;" xml:space="preserve">
<style type="text/css">
	.st0{fill:#595959;}
	.st1{fill:none;}
</style>
<path class="st0" d="M470.8,306.9l-16.5,9.4l0,0l-300,173.8v19.3l314.6-182.2c3.9-2.2,6.2-6.4,6.2-10.8
	C475.1,312.7,473.5,309.2,470.8,306.9z M73.3,95.6l362.2,209.8l16.8-9.5L75.7,77.7c-3.9-2.2-8.6-2.2-12.5,0
	c-3.9,2.2-6.3,6.4-6.3,10.8v455.6c0,4.5,2.4,8.6,6.3,10.8c3.9,2.2,8.6,2.2,12.5,0l34.5-20v-19.3L73.3,537V95.6z"/>
<path class="st0" d="M536.5,266.5L143.3,38.7c-3.9-2.2-8.6-2.2-12.5,0c-3.9,2.2-6.3,6.4-6.3,10.8v36.4l16.4,9.3V56.6l381,220.7
	l-364.2,211v19.3l378.8-219.5c3.9-2.2,6.2-6.4,6.2-10.8C542.7,272.9,540.3,268.7,536.5,266.5z"/>
<path class="st0" d="M535.9,344.5l-28.2-16.3l-5.8,3.3l-0.2,0.1l-10.8,6.1l30.4,17.6L140.9,575.7V156.6l-16.4-9.3v435.5
	c0,4.5,2.4,8.6,6.3,10.8c3.9,2.2,8.6,2.2,12.5,0l392.6-227.5c3.9-2.2,6.2-6.4,6.2-10.8C542.1,350.9,539.7,346.7,535.9,344.5z
	 M472.5,325l0.2-0.1l14.9-8.4l-16.7-9.7l-0.1,0l-16.5,9.4l-0.2,0.1l16.6,9.6L472.5,325z"/>
<polyline class="st1" points="163.4,106.8 140.9,94.1 124.5,84.8 113,78.3 "/>
<polyline class="st1" points="102.9,135.1 124.5,147.3 140.9,156.6 140.9,156.6 153.3,163.6 "/>
<polyline class="st1" points="475.1,282.9 452.3,295.9 452.1,296 435.5,305.4 435.3,305.5 412.4,318.6 "/>
<polyline class="st1" points="462,354.2 484.9,341.1 485.1,341 491,337.7 501.7,331.6 501.9,331.5 507.7,328.2 524.7,318.6 "/>
<polyline class="st1" points="449.5,338.1 470.7,326 472.5,325 472.6,324.9 487.5,316.5 489.3,315.5 489.4,315.4 512.2,302.4 "/>
<polyline class="st1" points="427.2,331.6 454.1,316.4 454.3,316.3 470.8,306.9 470.9,306.8 490,296 "/>
<polyline class="st1" points="110.2,549.6 110.2,534.9 110.2,515.7 110.2,485.5 "/>
<polyline class="st1" points="140.6,526.8 140.6,512.1 140.6,492.8 140.6,462.7 "/>
<polyline class="st1" points="154.4,526.8 154.4,509.3 154.4,490 154.4,462.7 "/>
<line class="st1" x1="140.6" y1="475.4" x2="140.6" y2="535.2"/>
<polyline class="st1" points="157.7,533.6 157.7,507.6 157.7,488.3 157.7,465.2 "/>
</svg>
