<?xml version="1.0" encoding="utf-8"?>
<!-- Generator: Adobe Illustrator 25.1.0, SVG Export Plug-In . SVG Version: 6.00 Build 0)  -->
<svg version="1.1" id="Layer_1" xmlns="http://www.w3.org/2000/svg" xmlns:xlink="http://www.w3.org/1999/xlink" x="0px" y="0px"
	 viewBox="0 0 961.71 1080" style="enable-background:new 0 0 961.71 1080;" xml:space="preserve">
<style type="text/css">
	.st0{fill:none;}
	.st1{fill:#707070;}
</style>
<g transform="translate(981 27) rotate(90)">
	<path class="st0" d="M513,59.52l513.14,881.24H-0.14L513,59.52z"/>
	<path class="st1" d="M513,59.52L-0.14,940.76h1026.28L513,59.52 M513,43.52c5.7,0,10.96,3.03,13.83,7.95l513.14,881.24
		c2.88,4.95,2.9,11.06,0.04,16.03c-2.85,4.97-8.15,8.03-13.87,8.03H-0.14c-5.73,0-11.02-3.06-13.87-8.03
		c-2.86-4.97-2.84-11.08,0.04-16.03L499.17,51.47C502.04,46.55,507.3,43.52,513,43.52z"/>
</g>
</svg>
