<?xml version="1.0" encoding="utf-8"?>
<!-- Generator: Adobe Illustrator 25.1.0, SVG Export Plug-In . SVG Version: 6.00 Build 0)  -->
<svg version="1.1" id="Layer_1" xmlns="http://www.w3.org/2000/svg" xmlns:xlink="http://www.w3.org/1999/xlink" x="0px" y="0px"
	 viewBox="0 0 839 1080" style="enable-background:new 0 0 839 1080;" xml:space="preserve">
<style type="text/css">
	.st0{fill:#595959;}
</style>
<g>
	<path class="st0" d="M146.06,94.3l-0.82-54.08l650.52,431.04L179.66,886.6l13.82,20.5l629.08-424.09l0.13-4.83
		c0.2-7.43-1.28-14.81-4.32-21.59L142.88,9c-7.93,0.59-15.57,3.27-22.14,7.75l-0.56,0.39l1.17,77.53L146.06,94.3z"/>
	<path class="st0" d="M41.02,983.91V107.86l602.42,410.16l13.91-20.43L50,84.07l-2.87-0.05c-12.33-0.19-23.92,5.84-30.84,16.04
		v912.78c4.37,4.49,9.87,7.72,15.92,9.35l1.39,0.38l53.65-45.42l-15.97-18.86L41.02,983.91z"/>
	<path class="st0" d="M820.47,599.16L770.4,565.7l-13.55,21.02l36.3,24.25l-644.74,429.97V226.35h-24.72v822.17
		c0,12.42,10.06,22.48,22.48,22.48h2.24v0l673.62-449.23l0.55-9.65c0.11-1.94-0.05-3.88-0.48-5.77L820.47,599.16z"/>
</g>
</svg>
