<svg xmlns="http://www.w3.org/2000/svg" xmlns:xlink="http://www.w3.org/1999/xlink" width="1080" height="1080" viewBox="0 0 1080 1080"><defs><clipPath id="b"><rect width="1080" height="1080"/></clipPath></defs><g id="a" clip-path="url(#b)"><rect width="1080" height="1080" fill="#fff"/><g transform="translate(981 27) rotate(90)" fill="none" stroke-linejoin="round"><path d="M513,0l513,881H0Z" stroke="none"/><path d="M 513 -6.103515625e-05 L 0 881 L 1026 881 L 513 -6.103515625e-05 M 513 -16.00006103515625 C 518.6951293945313 -16.00006103515625 523.9609985351563 -12.97271728515625 526.8267211914063 -8.0511474609375 L 1039.82666015625 872.9488525390625 C 1042.708374023438 877.897705078125 1042.725463867188 884.0093994140625 1039.87109375 888.9744262695313 C 1037.016967773438 893.9392700195313 1031.726806640625 897 1026 897 L 0 897 C -5.726806640625 897 -11.0169677734375 893.9392700195313 -13.87109375 888.9744262695313 C -16.7254638671875 884.0093994140625 -16.7083740234375 877.897705078125 -13.82666015625 872.9488525390625 L 499.1732788085938 -8.0511474609375 C 502.0390014648438 -12.97271728515625 507.3048706054688 -16.00006103515625 513 -16.00006103515625 Z" stroke="none" fill="#707070"/></g></g></svg>